<svg width="35" height="35" viewBox="0 0 35 35" fill="none" xmlns="http://www.w3.org/2000/svg">
<path fill-rule="evenodd" clip-rule="evenodd" d="M31.479 18.1018C28.6547 23.1736 23.2986 26.3242 17.5037 26.3242C11.7051 26.3242 6.34903 23.1736 3.5247 18.1018C3.30718 17.7079 3.30718 17.2916 3.5247 16.8982C6.34903 11.8264 11.7051 8.67617 17.5037 8.67617C23.2986 8.67617 28.6546 11.8264 31.479 16.8982C31.7003 17.2916 31.7003 17.7079 31.479 18.1018ZM33.2831 15.8926C30.095 10.1663 24.0488 6.60953 17.5037 6.60953C10.9549 6.60953 4.9087 10.1663 1.72056 15.8926C1.15044 16.9143 1.15044 18.0856 1.72056 19.1066C4.9087 24.8328 10.9549 28.3904 17.5037 28.3904C24.0488 28.3904 30.095 24.8328 33.2831 19.1066C33.8532 18.0857 33.8532 16.9143 33.2831 15.8926ZM17.5037 21.7392C19.8404 21.7392 21.7421 19.8376 21.7421 17.4998C21.7421 15.162 19.8404 13.2603 17.5037 13.2603C15.1632 13.2603 13.2616 15.162 13.2616 17.4998C13.2616 19.8376 15.1633 21.7392 17.5037 21.7392ZM17.5037 11.1937C14.023 11.1937 11.195 14.0229 11.195 17.4999C11.195 20.9776 14.0231 23.8056 17.5037 23.8056C20.9807 23.8056 23.8087 20.9775 23.8087 17.4999C23.8087 14.0229 20.9807 11.1937 17.5037 11.1937Z" fill="white"/>
</svg>
