<svg width="25" height="26" viewBox="0 0 25 26" fill="none" xmlns="http://www.w3.org/2000/svg">
<path d="M18.1491 6.54935L6.77865 6.5493C6.33596 6.51505 5.94925 6.84615 5.91505 7.2889C5.8808 7.7316 6.21191 8.11831 6.65465 8.15251C6.69594 8.15568 6.73742 8.15573 6.77865 8.15251L16.2104 8.15823L6.65472 18.4482C6.34076 18.7621 6.34076 19.2712 6.65477 19.5852C6.96877 19.8993 7.47782 19.8992 7.79178 19.5852L17.3475 9.29529L17.3475 18.7214C17.3133 19.1641 17.6444 19.5508 18.0871 19.585C18.5299 19.6192 18.9165 19.2881 18.9507 18.8454C18.9539 18.8041 18.9539 18.7626 18.9507 18.7214L18.9507 7.35086C18.9494 6.90879 18.5913 6.55067 18.1491 6.54935Z" fill="#262829"/>
</svg>
