<svg width="17" height="18" viewBox="0 0 17 18" fill="none" xmlns="http://www.w3.org/2000/svg">
<path d="M15.2838 0.731924L1.32541 0.731861C0.781952 0.689817 0.30723 1.09628 0.265246 1.6398C0.223202 2.18326 0.629669 2.65798 1.17319 2.69997C1.22387 2.70387 1.27479 2.70393 1.32541 2.69997L12.9039 2.70699L1.17327 15.339C0.78785 15.7244 0.78785 16.3494 1.17333 16.7348C1.5588 17.1203 2.18371 17.1203 2.56913 16.7349L14.2998 4.10285L14.2998 15.6743C14.2577 16.2178 14.6642 16.6925 15.2077 16.7345C15.7512 16.7765 16.2259 16.3701 16.2679 15.8266C16.2718 15.7759 16.2719 15.725 16.2679 15.6743L16.2679 1.71586C16.2663 1.17318 15.8267 0.733544 15.2838 0.731924Z" fill="white"/>
</svg>
