<svg width="26" height="25" viewBox="0 0 26 25" fill="none" xmlns="http://www.w3.org/2000/svg">
<g clip-path="url(#clip0_922_625)">
<path d="M10.4488 9.12959H10.092H7.71289V11.3104H10.2704C10.7264 11.3104 11.1229 11.1914 11.1229 10.1407C11.1229 9.08994 10.4488 9.12959 10.4488 9.12959Z" fill="white"/>
<path d="M10.4488 12.8965H7.71289V15.6721H10.1118C10.1514 15.6721 10.2109 15.6721 10.2902 15.6721C10.6867 15.6721 11.4401 15.5135 11.4401 14.3239C11.4599 12.9163 10.4488 12.8965 10.4488 12.8965Z" fill="white"/>
<path d="M19.4887 0.00976562H7.03831C3.58866 0.00976562 0.773438 2.82499 0.773438 6.27464V18.7449C0.773438 22.1747 3.58866 24.9899 7.03831 24.9899H19.5086C22.9582 24.9899 25.7734 22.1747 25.7734 18.7251V6.27464C25.7536 2.82499 22.9384 0.00976562 19.4887 0.00976562ZM15.4443 7.93998H19.6077V8.93126H15.4443V7.93998ZM13.5014 14.4626C13.5014 17.5554 10.4483 17.6545 10.4483 17.6545H7.63307H7.55377H5.53157V7.34521H7.53395H7.61325H10.4285C11.955 7.34521 13.1644 8.21754 13.1644 10.0415C13.1644 11.8654 11.6973 11.9646 11.6973 11.9646C13.6402 11.9447 13.5014 14.4626 13.5014 14.4626ZM20.9757 14.2842H15.9598C15.9598 16.2667 17.6648 16.1081 17.6648 16.1081C19.2707 16.1081 19.2112 15.0772 19.2112 15.0772H20.9162C20.9162 17.8527 17.6053 17.7338 17.6053 17.7338C13.6402 17.7338 13.8979 13.8282 13.8979 13.8282C13.8979 13.8282 13.8979 9.90271 17.6053 9.90271C21.5109 9.88288 20.9757 14.2842 20.9757 14.2842Z" fill="white"/>
<path d="M17.6444 11.3301C16.1575 11.3301 15.9395 12.8963 15.9395 12.8963H19.1115C19.1115 12.8963 19.1314 11.3301 17.6444 11.3301Z" fill="white"/>
</g>
<defs>
<clipPath id="clip0_922_625">
<rect width="25" height="25" fill="white" transform="translate(0.773438)"/>
</clipPath>
</defs>
</svg>
