<svg width="92" height="86" viewBox="0 0 92 86" fill="none" xmlns="http://www.w3.org/2000/svg">
<g filter="url(#filter0_d_260_1590)">
<rect x="25" y="16" width="51" height="51" rx="25.5" fill="#6754E2" shape-rendering="crispEdges"/>
<path fill-rule="evenodd" clip-rule="evenodd" d="M60.005 41.9092C58.0845 45.358 54.4423 47.5004 50.5018 47.5004C46.5587 47.5004 42.9166 45.358 40.9961 41.9092C40.8482 41.6414 40.8482 41.3583 40.9961 41.0908C42.9166 37.642 46.5587 35.4998 50.5018 35.4998C54.4423 35.4998 58.0844 37.642 60.005 41.0908C60.1555 41.3583 60.1555 41.6414 60.005 41.9092ZM61.2318 40.407C59.0639 36.5131 54.9525 34.0945 50.5018 34.0945C46.0486 34.0945 41.9372 36.5131 39.7693 40.407C39.3816 41.1017 39.3816 41.8982 39.7693 42.5925C41.9372 46.4863 46.0486 48.9055 50.5018 48.9055C54.9525 48.9055 59.0639 46.4863 61.2318 42.5925C61.6195 41.8983 61.6195 41.1017 61.2318 40.407ZM50.5018 44.3827C52.0908 44.3827 53.3839 43.0896 53.3839 41.4999C53.3839 39.9101 52.0908 38.617 50.5018 38.617C48.9103 38.617 47.6172 39.9101 47.6172 41.4999C47.6172 43.0896 48.9103 44.3827 50.5018 44.3827ZM50.5018 37.2117C48.1349 37.2117 46.2119 39.1356 46.2119 41.4999C46.2119 43.8648 48.135 45.7878 50.5018 45.7878C52.8662 45.7878 54.7892 43.8647 54.7892 41.4999C54.7892 39.1356 52.8662 37.2117 50.5018 37.2117Z" fill="white"/>
</g>
<defs>
<filter id="filter0_d_260_1590" x="0.52" y="0.360001" width="99.96" height="99.96" filterUnits="userSpaceOnUse" color-interpolation-filters="sRGB">
<feFlood flood-opacity="0" result="BackgroundImageFix"/>
<feColorMatrix in="SourceAlpha" type="matrix" values="0 0 0 0 0 0 0 0 0 0 0 0 0 0 0 0 0 0 127 0" result="hardAlpha"/>
<feOffset dy="8.84"/>
<feGaussianBlur stdDeviation="12.24"/>
<feComposite in2="hardAlpha" operator="out"/>
<feColorMatrix type="matrix" values="0 0 0 0 0 0 0 0 0 0 0 0 0 0 0 0 0 0 0.1 0"/>
<feBlend mode="normal" in2="BackgroundImageFix" result="effect1_dropShadow_260_1590"/>
<feBlend mode="normal" in="SourceGraphic" in2="effect1_dropShadow_260_1590" result="shape"/>
</filter>
</defs>
</svg>
