<svg width="26" height="25" viewBox="0 0 26 25" fill="none" xmlns="http://www.w3.org/2000/svg">
<path fill-rule="evenodd" clip-rule="evenodd" d="M6.88496 1.09375C3.7351 1.09375 1.18164 3.64721 1.18164 6.79707V18.2037C1.18164 21.3536 3.7351 23.907 6.88496 23.907H18.2916C21.4415 23.907 23.9949 21.3536 23.9949 18.2037V6.79707C23.9949 3.64721 21.4415 1.09375 18.2916 1.09375H6.88496ZM12.5883 8.35252C10.2975 8.35252 8.44041 10.2096 8.44041 12.5004C8.44041 14.7912 10.2975 16.6483 12.5883 16.6483C14.879 16.6483 16.7362 14.7912 16.7362 12.5004C16.7362 10.2096 14.879 8.35252 12.5883 8.35252ZM6.36648 12.5004C6.36648 9.06418 9.15207 6.27859 12.5883 6.27859C16.0245 6.27859 18.8101 9.06418 18.8101 12.5004C18.8101 15.9366 16.0245 18.7222 12.5883 18.7222C9.15207 18.7222 6.36648 15.9366 6.36648 12.5004ZM18.8101 4.20465C17.6647 4.20465 16.7362 5.13318 16.7362 6.27859C16.7362 7.42399 17.6647 8.35252 18.8101 8.35252C19.9555 8.35252 20.884 7.42399 20.884 6.27859C20.884 5.13318 19.9555 4.20465 18.8101 4.20465Z" fill="#262829"/>
</svg>
