<svg width="26" height="25" viewBox="0 0 26 25" fill="none" xmlns="http://www.w3.org/2000/svg">
<g clip-path="url(#clip0_922_640)">
<path d="M19.5918 0.0664062H7.19754C3.76346 0.0664062 0.960938 2.86893 0.960938 6.30301V18.717C0.960938 22.1314 3.76346 24.9339 7.19754 24.9339H19.6115C23.0456 24.9339 25.8482 22.1314 25.8482 18.6973V6.30301C25.8284 2.86893 23.0259 0.0664062 19.5918 0.0664062ZM9.2501 20.1972H5.6976V9.93445H9.2501V20.1972ZM7.45411 8.35557C6.44757 8.35557 5.63839 7.54639 5.63839 6.53985C5.63839 5.5333 6.44757 4.72412 7.45411 4.72412C8.46065 4.72412 9.26983 5.5333 9.26983 6.53985C9.2501 7.54639 8.44092 8.35557 7.45411 8.35557ZM21.1115 20.1972H21.0918H18.1313V15.2237C18.1313 14.0198 17.9735 12.4804 16.3354 12.4804C14.6578 12.4804 14.3815 13.783 14.3815 15.1448V20.1972H11.4211V9.93445H14.1841V11.316H14.2631C14.6973 10.5265 15.7038 9.91472 17.2827 9.91472C20.5391 9.91472 21.1115 11.7896 21.1115 14.5724V20.1972Z" fill="#262829"/>
</g>
<defs>
<clipPath id="clip0_922_640">
<rect width="24.8872" height="24.8872" fill="white" transform="translate(0.958984 0.0561523)"/>
</clipPath>
</defs>
</svg>
