<svg width="36" height="35" viewBox="0 0 36 35" fill="none" xmlns="http://www.w3.org/2000/svg">
<path d="M30.7513 27.7083H4.5013C4.11453 27.7083 3.7436 27.862 3.4701 28.1355C3.19661 28.409 3.04297 28.7799 3.04297 29.1667C3.04297 29.5535 3.19661 29.9244 3.4701 30.1979C3.7436 30.4714 4.11453 30.625 4.5013 30.625H30.7513C31.1381 30.625 31.509 30.4714 31.7825 30.1979C32.056 29.9244 32.2096 29.5535 32.2096 29.1667C32.2096 28.7799 32.056 28.409 31.7825 28.1355C31.509 27.862 31.1381 27.7083 30.7513 27.7083Z" fill="#5F6264"/>
<path d="M17.6232 2.91667C17.2364 2.91667 16.8654 3.07032 16.592 3.34381C16.3185 3.6173 16.1648 3.98823 16.1648 4.37501V19.8188L11.3669 15.0063C11.0923 14.7316 10.7198 14.5774 10.3315 14.5774C9.94313 14.5774 9.57068 14.7316 9.29607 15.0063C9.02146 15.2809 8.86719 15.6533 8.86719 16.0417C8.86719 16.43 9.02146 16.8025 9.29607 17.0771L16.5877 24.3688C16.7233 24.5054 16.8846 24.6139 17.0623 24.688C17.24 24.762 17.4306 24.8001 17.6232 24.8001C17.8157 24.8001 18.0063 24.762 18.184 24.688C18.3617 24.6139 18.523 24.5054 18.6586 24.3688L25.9502 17.0771C26.0862 16.9411 26.1941 16.7797 26.2677 16.602C26.3412 16.4244 26.3791 16.234 26.3791 16.0417C26.3791 15.8494 26.3412 15.659 26.2677 15.4813C26.1941 15.3036 26.0862 15.1422 25.9502 15.0063C25.8143 14.8703 25.6528 14.7624 25.4752 14.6888C25.2975 14.6152 25.1071 14.5774 24.9148 14.5774C24.7225 14.5774 24.5321 14.6152 24.3545 14.6888C24.1768 14.7624 24.0154 14.8703 23.8794 15.0063L19.0815 19.8188V4.37501C19.0815 3.98823 18.9278 3.6173 18.6544 3.34381C18.3809 3.07032 18.0099 2.91667 17.6232 2.91667Z" fill="#5F6264"/>
</svg>
