<svg width="43" height="43" viewBox="0 0 43 43" fill="none" xmlns="http://www.w3.org/2000/svg">
<g clip-path="url(#clip0_222_1090)">
<path d="M32.5797 14.6693C34.7546 13.2399 36.1932 10.7789 36.1932 7.98849C36.1932 3.58355 32.6089 6.10352e-05 28.2039 6.10352e-05H14.4971C10.0921 6.10352e-05 6.50781 3.58355 6.50781 7.98849C6.50781 10.7789 7.94638 13.2399 10.1213 14.6693C7.94638 16.0978 6.50781 18.5588 6.50781 21.3492C6.50781 24.1397 7.94638 26.6006 10.1213 28.03C7.94638 29.4578 6.50781 31.9196 6.50781 34.71C6.50781 39.1149 10.1113 42.6984 14.5396 42.6984C19.0163 42.6984 22.659 39.0757 22.659 34.6233V27.2561C24.0784 28.5496 25.9639 29.3377 28.0305 29.3377H28.2039C32.6089 29.3377 36.1932 25.7542 36.1932 21.3492C36.1932 18.5588 34.7546 16.0978 32.5797 14.6693ZM22.659 2.617H28.2039C31.1661 2.617 33.5762 5.02629 33.5762 7.98849C33.5762 10.9507 31.1661 13.3608 28.2039 13.3608H22.659V2.617ZM9.12476 7.98849C9.12476 5.02629 11.5349 2.617 14.4971 2.617H20.042V13.3608H14.4971C11.5349 13.3608 9.12476 10.9507 9.12476 7.98849ZM9.12476 21.3492C9.12476 18.387 11.5349 15.9778 14.4971 15.9778H20.042V26.7216H14.4629C11.5165 26.7032 9.12476 24.2998 9.12476 21.3492ZM20.042 34.6233C20.042 37.633 17.5735 40.0815 14.5396 40.0815C11.5541 40.0815 9.12476 37.6722 9.12476 34.71C9.12476 31.7478 11.5349 29.3377 14.4971 29.3377H20.042V34.6233ZM28.2039 26.7216H28.0305C25.0683 26.7216 22.659 24.3114 22.659 21.3492C22.659 18.387 25.0683 15.9778 28.0305 15.9778H28.2039C31.1661 15.9778 33.5762 18.387 33.5762 21.3492C33.5762 24.3114 31.1661 26.7216 28.2039 26.7216Z" fill="#E2E1E1"/>
<path d="M14.4951 26.7208C14.4835 26.7208 14.4726 26.7208 14.4609 26.7216H20.0401V26.7208H14.4951Z" fill="#E2E1E1"/>
</g>
<defs>
<clipPath id="clip0_222_1090">
<rect width="42.6984" height="42.6984" fill="white"/>
</clipPath>
</defs>
</svg>
