<svg width="44" height="43" viewBox="0 0 44 43" fill="none" xmlns="http://www.w3.org/2000/svg">
<g clip-path="url(#clip0_222_1096)">
<path d="M14.4032 14.5039L16.7586 22.1432H12.0469L14.4032 14.5039Z" fill="#E2E1E1"/>
<path d="M35.8391 0.76239H8.25768C4.08309 0.76239 0.699219 4.14626 0.699219 8.32168V34.3768C0.699219 38.5522 4.08309 41.9361 8.25768 41.9361H35.8391C40.0137 41.9361 43.3976 38.5522 43.3976 34.3768V8.32168C43.3976 4.14626 40.0137 0.76239 35.8391 0.76239ZM22.9367 29.7209H19.2692C19.1391 29.7351 19.0182 29.6508 18.9873 29.5232L17.5485 25.146H11.031L9.70565 29.4665C9.66811 29.6217 9.52632 29.7284 9.36701 29.7209H6.06654C5.87804 29.7209 5.81215 29.6175 5.86886 29.4106L11.5114 13.3712C11.5673 13.2019 11.624 13.0092 11.6808 12.7932C11.7542 12.4162 11.7917 12.0342 11.7934 11.6505C11.7792 11.5546 11.8459 11.4662 11.9418 11.4528C11.9577 11.4503 11.9744 11.4503 11.991 11.4528H16.4767C16.6077 11.4528 16.6827 11.5004 16.7019 11.5938L23.106 29.4382C23.1627 29.6267 23.106 29.7209 22.9367 29.7209ZM36.3938 29.7009L33.4878 29.7384C33.3444 29.7534 33.2068 29.6734 33.1492 29.5408C33.1092 29.3965 33.0766 29.2505 33.0508 29.1037C33.0241 28.9595 33.0099 28.8126 33.0083 28.6658C32.4836 29.1954 31.8455 29.6 31.1432 29.8494C30.5085 30.0229 29.8546 30.1129 29.1965 30.1179C28.5167 30.1188 27.8411 30.0112 27.1955 29.8001C26.6292 29.6433 26.1112 29.3481 25.6875 28.9419C25.2371 28.3905 24.9018 27.755 24.7 27.0719C24.4472 26.2645 24.3279 25.4212 24.3471 24.5755V16.253C24.3321 16.1445 24.408 16.0436 24.5165 16.0278C24.5356 16.0253 24.5548 16.0253 24.5732 16.0278H27.8912C28.0004 16.0119 28.1013 16.0878 28.1172 16.1971C28.1197 16.2154 28.1197 16.2346 28.1172 16.253V24.1242C28.0805 24.7698 28.259 25.4104 28.6251 25.9434C29.0864 26.4722 29.7578 26.7699 30.4593 26.7582C30.913 26.7132 31.3559 26.5906 31.768 26.3954C32.125 26.2545 32.4578 26.0593 32.7547 25.8166V16.2255C32.7547 16.0937 32.8398 16.0278 33.0091 16.0278L36.3212 16.0361C36.4171 16.0219 36.5056 16.0887 36.5189 16.1846C36.5206 16.2004 36.5206 16.2171 36.5189 16.233L36.4497 26.5697C36.4497 27.0393 36.4547 27.458 36.4639 27.825C36.4739 28.1912 36.4922 28.5115 36.5206 28.7842C36.5489 29.057 36.5723 29.2872 36.5915 29.4749C36.6098 29.6258 36.5439 29.7009 36.3938 29.7009Z" fill="#E2E1E1"/>
</g>
<defs>
<clipPath id="clip0_222_1096">
<rect width="42.6984" height="42.6984" fill="white" transform="translate(0.699219)"/>
</clipPath>
</defs>
</svg>
