<svg width="44" height="43" viewBox="0 0 44 43" fill="none" xmlns="http://www.w3.org/2000/svg">
<g clip-path="url(#clip0_222_1103)">
<path d="M19.7025 15.9938C19.9869 16.475 20.1295 17.0262 20.1111 17.5774C20.1111 18.3605 19.9335 18.9651 19.5599 19.4104C19.1688 19.8549 18.6701 20.1926 18.1014 20.3527C17.4426 20.5662 16.7488 20.6729 16.055 20.6729H15.1118C14.8983 20.6729 14.6673 20.6554 14.418 20.6379V14.6595C14.5431 14.642 14.7916 14.6245 15.1476 14.642C15.4854 14.6245 15.8948 14.6245 16.3577 14.6245C17.0873 14.6062 17.7987 14.7129 18.4566 14.9798C18.9728 15.1757 19.3998 15.5318 19.7025 15.9938Z" fill="#E2E1E1"/>
<path d="M35.5357 0.533798H7.95959C3.77915 0.533798 0.398438 3.91451 0.398438 8.09495V34.6036C0.398438 38.784 3.77915 42.1647 7.95959 42.1647H35.5357C39.7161 42.1647 43.0968 38.784 43.0968 34.6036V8.09495C43.0968 3.91451 39.7161 0.533798 35.5357 0.533798ZM22.9218 21.26C21.3398 23.4749 18.6229 24.0353 16.0544 24.0353C15.6275 24.0353 15.3431 24.0353 15.1647 24.0178C14.987 24.0003 14.7377 24.0003 14.4 24.0003V29.711C14.4175 29.8352 14.3291 29.942 14.204 29.9603H10.7532C10.6106 29.9603 10.5397 29.8886 10.5397 29.7285V11.4223C10.5397 11.2972 10.5931 11.2263 10.7174 11.2263C11.0201 11.2263 11.3044 11.2263 11.7139 11.2088L16.2329 11.1196C17.6914 11.1196 18.9015 11.2972 19.8972 11.6708C21.5617 12.2954 22.9501 13.4654 23.5797 15.1583C24.2952 17.0796 24.131 19.568 22.9218 21.26ZM35.0553 19.1252C35.0553 19.2678 34.9661 19.3212 34.7701 19.3212C34.1297 19.3037 33.4717 19.357 32.8488 19.4988C32.3334 19.6055 31.8347 19.7657 31.3544 19.9791C31.0166 20.1393 30.6964 20.3527 30.4471 20.6379V29.711C30.4471 29.8886 30.3762 29.9603 30.2161 29.9603H26.7111C26.5685 29.9778 26.4443 29.8886 26.4267 29.7468V19.819C26.4267 19.3921 26.4267 18.9476 26.4084 18.4848C26.3909 18.0228 26.3909 17.5599 26.3734 17.0971C26.3734 16.6885 26.3375 16.2966 26.3017 15.8879C26.2841 15.7987 26.3375 15.7095 26.4267 15.692C26.4267 15.6736 26.4618 15.6736 26.4801 15.692H29.5931C29.7716 15.692 29.9134 15.8162 29.9667 15.9763C30.0201 16.1189 30.056 16.2615 30.0735 16.4216C30.1093 16.5993 30.1452 16.7952 30.1627 16.9729C30.1802 17.1688 30.1986 17.3823 30.1986 17.6133C30.7323 16.9904 31.3727 16.475 32.1016 16.0831C32.9205 15.6202 33.8628 15.3892 34.806 15.3892C34.9302 15.3717 35.037 15.4601 35.0553 15.5852V19.1252Z" fill="#E2E1E1"/>
</g>
<defs>
<clipPath id="clip0_222_1103">
<rect width="42.6984" height="42.6984" fill="white" transform="translate(0.398438)"/>
</clipPath>
</defs>
</svg>
