<svg width="43" height="43" viewBox="0 0 43 43" fill="none" xmlns="http://www.w3.org/2000/svg">
<g clip-path="url(#clip0_222_1110)">
<path d="M17.44 14.4817H17.4041L15.1983 21.9005H19.7175L17.44 14.4817ZM17.44 14.4817H17.4041L15.1983 21.9005H19.7175L17.44 14.4817ZM35.2307 0.533798H7.6552C3.47376 0.533798 0.09375 3.91381 0.09375 8.09525V34.6033C0.09375 38.7847 3.47376 42.1647 7.6552 42.1647H35.2307C39.4121 42.1647 42.7921 38.7847 42.7921 34.6033V8.09525C42.7921 3.91381 39.4121 0.533798 35.2307 0.533798ZM26.2465 29.9423H22.5279C22.4036 29.9598 22.2794 29.8714 22.2435 29.7463L20.7849 25.5123H14.1667L12.814 29.6929C12.779 29.8531 12.6364 29.9598 12.4763 29.9423H9.13129C8.93615 29.9423 8.88278 29.8356 8.93615 29.6221L14.6646 13.1298C14.7179 12.9522 14.7713 12.7562 14.8422 12.5427C14.9139 12.1691 14.9489 11.778 14.9489 11.386C14.9314 11.2976 15.0023 11.2084 15.0916 11.1909H19.6991C19.8417 11.1909 19.9126 11.2443 19.931 11.3326L26.4241 29.6579C26.4775 29.8531 26.4241 29.9423 26.2465 29.9423ZM32.2952 29.6754C32.2952 29.8714 32.2243 29.9598 32.0642 29.9598H28.5774C28.3989 29.9598 28.3105 29.8531 28.3105 29.6754V15.9761C28.3105 15.7985 28.3814 15.7276 28.5415 15.7276H32.0642C32.2243 15.7276 32.2952 15.816 32.2952 15.9761V29.6754ZM31.9215 13.6102C31.5129 14.0372 30.9075 14.2682 30.3028 14.2331C29.7157 14.2506 29.1462 14.0196 28.7192 13.6102C28.3105 13.1657 28.097 12.5786 28.1146 11.9731C28.097 11.3685 28.328 10.7989 28.755 10.3903C29.182 9.98081 29.7516 9.76732 30.3387 9.76732C31.0326 9.76732 31.5663 9.98081 31.9574 10.3903C32.3485 10.8173 32.562 11.386 32.5445 11.9731C32.562 12.5786 32.3485 13.1657 31.9215 13.6102ZM17.4041 14.4817L15.1983 21.9005H19.7175L17.44 14.4817H17.4041Z" fill="#E2E1E1"/>
</g>
<defs>
<clipPath id="clip0_222_1110">
<rect width="42.6984" height="42.6984" fill="white" transform="translate(0.09375)"/>
</clipPath>
</defs>
</svg>
