<svg width="44" height="43" viewBox="0 0 44 43" fill="none" xmlns="http://www.w3.org/2000/svg">
<g clip-path="url(#clip0_222_1116)">
<path d="M19.5472 16.0034C19.8375 16.459 19.989 17.0049 19.9699 17.5773C19.9699 18.3604 19.7923 18.965 19.4187 19.4103C18.594 20.3932 17.133 20.6729 15.9136 20.6729H14.9712C14.7577 20.6729 14.5259 20.6554 14.2773 20.6379V14.6601C14.4016 14.6418 14.651 14.6243 15.0062 14.6418C15.3448 14.6243 15.7534 14.6243 16.2163 14.6243C17.4423 14.6243 18.8419 14.8966 19.5472 16.0034Z" fill="#E2E1E1"/>
<path d="M35.9299 0.533798H8.35442C4.17298 0.533798 0.792969 3.91381 0.792969 8.09525V34.6033C0.792969 38.7847 4.17298 42.1647 8.35442 42.1647H35.9299C40.1113 42.1647 43.4913 38.7847 43.4913 34.6033V8.09525C43.4913 3.91381 40.1113 0.533798 35.9299 0.533798ZM22.7826 21.26C22.0713 22.2566 21.0747 23.0038 19.918 23.4308C18.7088 23.8753 17.3744 24.0354 15.915 24.0354C15.488 24.0354 15.2037 24.0354 15.026 24.0179C14.8476 24.0004 14.5991 24.0004 14.2605 24.0004V29.7113C14.2788 29.8356 14.1896 29.9423 14.0653 29.9598H10.6136C10.471 29.9598 10.4001 29.8889 10.4001 29.7288V11.4219C10.4001 11.2976 10.4535 11.2259 10.5777 11.2259C10.8805 11.2259 11.1648 11.2259 11.5743 11.2084C12.0013 11.1909 12.4458 11.1909 12.9261 11.1725C13.4065 11.155 13.9227 11.155 14.474 11.1375C15.026 11.1192 15.5598 11.1192 16.0935 11.1192C17.5521 11.1192 18.7621 11.2976 19.7579 11.6712C20.6477 11.9731 21.4658 12.4718 22.1422 13.1298C22.7117 13.6994 23.1562 14.3933 23.4406 15.158C23.7075 15.9052 23.8501 16.6699 23.8501 17.4705C23.8501 19.0008 23.494 20.2643 22.7826 21.26ZM35.3962 28.181C34.8983 28.8924 34.2044 29.4444 33.4038 29.7647C32.5324 30.1383 31.4649 30.3334 30.184 30.3334C29.365 30.3334 28.5644 30.2625 27.7638 30.1024C27.1417 29.9957 26.5187 29.7997 25.9491 29.5328C25.8249 29.4619 25.7357 29.3377 25.754 29.1951V26.0994C25.754 26.0461 25.7715 25.9752 25.8249 25.9393C25.8783 25.9035 25.9316 25.9218 25.985 25.9568C26.6789 26.3663 27.4086 26.6507 28.1908 26.8292C28.8671 27.0068 29.5785 27.096 30.2907 27.096C30.9662 27.096 31.4466 27.0068 31.7668 26.8467C32.052 26.7224 32.2472 26.4197 32.2472 26.0994C32.2472 25.8501 32.1054 25.6191 31.8202 25.3881C31.5358 25.1562 30.9487 24.8894 30.0772 24.5516C29.1699 24.2314 28.3334 23.8044 27.5503 23.2707C26.9991 22.8796 26.5362 22.3633 26.1985 21.7587C25.9141 21.1891 25.7715 20.5662 25.789 19.944C25.789 19.1785 26.0025 18.4496 26.3945 17.7908C26.839 17.0794 27.497 16.5098 28.2625 16.1546C29.0982 15.7276 30.1481 15.5316 31.4115 15.5316C32.1404 15.5316 32.8876 15.585 33.6173 15.6917C34.1511 15.7626 34.6673 15.9052 35.1476 16.1012C35.2185 16.1187 35.2894 16.1896 35.3253 16.2613C35.3428 16.3322 35.3611 16.4031 35.3611 16.4748V19.3745C35.3611 19.4453 35.3253 19.5171 35.2719 19.5521C35.1118 19.5879 35.0225 19.5879 34.9517 19.5521C34.4179 19.2677 33.8483 19.0717 33.2437 18.9475C32.5857 18.8049 31.9269 18.7165 31.2514 18.7165C30.8953 18.6981 30.5217 18.7515 30.184 18.8407C29.9521 18.8941 29.757 19.0184 29.6319 19.1968C29.5435 19.3386 29.4901 19.5171 29.4901 19.6772C29.4901 19.8373 29.561 19.9974 29.6677 20.1392C29.8279 20.3352 30.0413 20.4953 30.2724 20.6195C30.6818 20.833 31.1088 21.029 31.5358 21.2066C32.4965 21.5269 33.4214 21.9722 34.2753 22.5059C34.8624 22.8796 35.3428 23.3774 35.6814 23.982C35.9658 24.5516 36.1084 25.1746 36.09 25.8151C36.1084 26.6507 35.859 27.4871 35.3962 28.181Z" fill="#E2E1E1"/>
</g>
<defs>
<clipPath id="clip0_222_1116">
<rect width="42.6984" height="42.6984" fill="white" transform="translate(0.792969)"/>
</clipPath>
</defs>
</svg>
